<svg width="120" height="120" viewBox="0 0 120 120" fill="none" xmlns="http://www.w3.org/2000/svg">
  <defs>
    <linearGradient id="bg" x1="0%" y1="0%" x2="100%" y2="100%">
      <stop offset="0%" style="stop-color:#85bf9e"/>
      <stop offset="100%" style="stop-color:#6da583"/>
    </linearGradient>
  </defs>
  <rect width="120" height="120" rx="24" fill="url(#bg)"/>
  <g transform="translate(16, 16) scale(3.67)">
    <!-- 왼쪽 손 -->
    <path d="M4 14C4 14 5 12 7 12C8 12 9 13 9 14C9 16 7 18 7 18" stroke="white" stroke-width="1.8" stroke-linecap="round"/>
    <!-- 오른쪽 손 -->
    <path d="M20 14C20 14 19 12 17 12C16 12 15 13 15 14C15 16 17 18 17 18" stroke="white" stroke-width="1.8" stroke-linecap="round"/>
    <!-- 중앙 하트 -->
    <path d="M12 8C12 8 9 5 7.5 6.5C6 8 7 10 12 14C17 10 18 8 16.5 6.5C15 5 12 8 12 8Z" fill="white"/>
  </g>
</svg>
